{"accessors" : [{"bufferView" : 0, "byteOffset" : 0, "componentType" : 5123, "count" : 19296, "type" : "SCALAR", "max" : [3429], "min" : [0]}, {"bufferView" : 1, "byteOffset" : 0, "componentType" : 5126, "count" : 3430, "type" : "VEC3", "max" : [9.45259952545166, 14.346099853515625, 7.018099784851074], "min" : [-9.45259952545166, -15.123700141906738, -6.21120023727417], "name" : "POSITION"}, {"bufferView" : 1, "byteOffset" : 12, "componentType" : 5126, "count" : 3430, "type" : "VEC2", "max" : [0.9814000129699707, 0.9700999855995178], "min" : [0.01979999989271164, 0.023899972438812256], "name" : "TEXCOORD_0"}, {"bufferView" : 1, "byteOffset" : 20, "componentType" : 5126, "count" : 3430, "type" : "VEC3", "max" : [0.9998273849487305, 0.9958456754684448, 0.9999644756317139], "min" : [-0.9999450445175171, -0.9999198913574219, -0.9997498393058777], "name" : "NORMAL"}], "asset" : {"generator" : "Aspose.3D 24.4.1", "version" : "2.0"}, "buffers" : [{"uri" : "data:application/octet-stream;base64,", "byteLength" : 148360}], "bufferViews" : [{"buffer" : 0, "byteOffset" : 0, "byteLength" : 38592, "target" : 34963}, {"buffer" : 0, "byteOffset" : 38596, "byteLength" : 109760, "byteStride" : 32, "target" : 34962}], "meshes" : [{"primitives" : [{"attributes" : {"POSITION" : 1, "TEXCOORD_0" : 2, "NORMAL" : 3}, "indices" : 0, "mode" : 4}], "name" : ""}], "nodes" : [{"mesh" : 0, "name" : "10131_BaseballCap_v02"}], "scene" : 0, "scenes" : [{"nodes" : [0]}]}