{"accessors" : [{"bufferView" : 0, "byteOffset" : 0, "componentType" : 5123, "count" : 24, "type" : "SCALAR", "max" : [9], "min" : [0]}, {"bufferView" : 1, "byteOffset" : 0, "componentType" : 5126, "count" : 10, "type" : "VEC3", "max" : [135.1734161376953, 36.5341682434082, -142.5659637451172], "min" : [134.64010620117188, 31.60420799255371, -143.39846801757812], "name" : "POSITION"}, {"bufferView" : 1, "byteOffset" : 12, "componentType" : 5126, "count" : 10, "type" : "VEC2", "max" : [1, 1], "min" : [0, 0], "name" : "TEXCOORD_0"}, {"bufferView" : 0, "byteOffset" : 48, "componentType" : 5123, "count" : 6, "type" : "SCALAR", "max" : [3], "min" : [0]}, {"bufferView" : 2, "byteOffset" : 0, "componentType" : 5126, "count" : 4, "type" : "VEC3", "max" : [135.1734161376953, 36.5341682434082, -143.39846801757812], "min" : [134.64010620117188, 31.60420799255371, -143.39846801757812], "name" : "POSITION"}, {"bufferView" : 2, "byteOffset" : 12, "componentType" : 5126, "count" : 4, "type" : "VEC2", "max" : [0.1081790030002594, 1], "min" : [0, 0], "name" : "TEXCOORD_0"}, {"bufferView" : 0, "byteOffset" : 60, "componentType" : 5123, "count" : 6, "type" : "SCALAR", "max" : [3], "min" : [0]}, {"bufferView" : 3, "byteOffset" : 0, "componentType" : 5126, "count" : 4, "type" : "VEC3", "max" : [135.1734161376953, 36.5341682434082, -142.5659637451172], "min" : [134.64010620117188, 31.60420799255371, -142.5659637451172], "name" : "POSITION"}, {"bufferView" : 3, "byteOffset" : 12, "componentType" : 5126, "count" : 4, "type" : "VEC2", "max" : [0.1081790030002594, 1], "min" : [0, 0], "name" : "TEXCOORD_0"}, {"bufferView" : 0, "byteOffset" : 72, "componentType" : 5123, "count" : 840, "type" : "SCALAR", "max" : [283], "min" : [0]}, {"bufferView" : 4, "byteOffset" : 0, "componentType" : 5126, "count" : 284, "type" : "VEC3", "max" : [133.7880859375, 35.01225662231445, -142.5659637451172], "min" : [130.51011657714844, 31.526161193847656, -143.39846801757812], "name" : "POSITION"}, {"bufferView" : 4, "byteOffset" : 12, "componentType" : 5126, "count" : 284, "type" : "VEC2", "max" : [1, 1], "min" : [0, 0], "name" : "TEXCOORD_0"}, {"bufferView" : 0, "byteOffset" : 1752, "componentType" : 5123, "count" : 420, "type" : "SCALAR", "max" : [139], "min" : [0]}, {"bufferView" : 5, "byteOffset" : 0, "componentType" : 5126, "count" : 140, "type" : "VEC3", "max" : [133.7880859375, 35.01225662231445, -143.39846801757812], "min" : [130.51011657714844, 31.526161193847656, -143.39846801757812], "name" : "POSITION"}, {"bufferView" : 5, "byteOffset" : 12, "componentType" : 5126, "count" : 140, "type" : "VEC2", "max" : [0.9402980208396912, 1], "min" : [0, 0], "name" : "TEXCOORD_0"}, {"bufferView" : 0, "byteOffset" : 2592, "componentType" : 5123, "count" : 420, "type" : "SCALAR", "max" : [139], "min" : [0]}, {"bufferView" : 6, "byteOffset" : 0, "componentType" : 5126, "count" : 140, "type" : "VEC3", "max" : [133.7880859375, 35.01225662231445, -142.5659637451172], "min" : [130.51011657714844, 31.526161193847656, -142.5659637451172], "name" : "POSITION"}, {"bufferView" : 6, "byteOffset" : 12, "componentType" : 5126, "count" : 140, "type" : "VEC2", "max" : [0.9402980208396912, 1], "min" : [0, 0], "name" : "TEXCOORD_0"}, {"bufferView" : 0, "byteOffset" : 3432, "componentType" : 5123, "count" : 1068, "type" : "SCALAR", "max" : [359], "min" : [0]}, {"bufferView" : 7, "byteOffset" : 0, "componentType" : 5126, "count" : 360, "type" : "VEC3", "max" : [129.8857421875, 35.01225662231445, -142.5659637451172], "min" : [126.81590270996094, 30.036766052246094, -143.39846801757812], "name" : "POSITION"}, {"bufferView" : 7, "byteOffset" : 12, "componentType" : 5126, "count" : 360, "type" : "VEC2", "max" : [1, 1], "min" : [0, 0], "name" : "TEXCOORD_0"}, {"bufferView" : 0, "byteOffset" : 5568, "componentType" : 5123, "count" : 534, "type" : "SCALAR", "max" : [177], "min" : [0]}, {"bufferView" : 8, "byteOffset" : 0, "componentType" : 5126, "count" : 178, "type" : "VEC3", "max" : [129.8857421875, 35.01225662231445, -143.39846801757812], "min" : [126.81590270996094, 30.036766052246094, -143.39846801757812], "name" : "POSITION"}, {"bufferView" : 8, "byteOffset" : 12, "componentType" : 5126, "count" : 178, "type" : "VEC2", "max" : [0.6169930100440979, 1], "min" : [0, 0], "name" : "TEXCOORD_0"}, {"bufferView" : 0, "byteOffset" : 6636, "componentType" : 5123, "count" : 534, "type" : "SCALAR", "max" : [177], "min" : [0]}, {"bufferView" : 9, "byteOffset" : 0, "componentType" : 5126, "count" : 178, "type" : "VEC3", "max" : [129.8857421875, 35.01225662231445, -142.5659637451172], "min" : [126.81590270996094, 30.036766052246094, -142.5659637451172], "name" : "POSITION"}, {"bufferView" : 9, "byteOffset" : 12, "componentType" : 5126, "count" : 178, "type" : "VEC2", "max" : [0.6169930100440979, 1], "min" : [0, 0], "name" : "TEXCOORD_0"}, {"bufferView" : 0, "byteOffset" : 7704, "componentType" : 5123, "count" : 840, "type" : "SCALAR", "max" : [283], "min" : [0]}, {"bufferView" : 10, "byteOffset" : 0, "componentType" : 5126, "count" : 284, "type" : "VEC3", "max" : [125.9638900756836, 35.01225662231445, -142.5659637451172], "min" : [122.68592071533203, 31.526161193847656, -143.39846801757812], "name" : "POSITION"}, {"bufferView" : 10, "byteOffset" : 12, "componentType" : 5126, "count" : 284, "type" : "VEC2", "max" : [1, 1], "min" : [0, 0], "name" : "TEXCOORD_0"}, {"bufferView" : 0, "byteOffset" : 9384, "componentType" : 5123, "count" : 420, "type" : "SCALAR", "max" : [139], "min" : [0]}, {"bufferView" : 11, "byteOffset" : 0, "componentType" : 5126, "count" : 140, "type" : "VEC3", "max" : [125.9638900756836, 35.01225662231445, -143.39846801757812], "min" : [122.68592071533203, 31.526161193847656, -143.39846801757812], "name" : "POSITION"}, {"bufferView" : 11, "byteOffset" : 12, "componentType" : 5126, "count" : 140, "type" : "VEC2", "max" : [0.9402980208396912, 1], "min" : [0, 0], "name" : "TEXCOORD_0"}, {"bufferView" : 0, "byteOffset" : 10224, "componentType" : 5123, "count" : 420, "type" : "SCALAR", "max" : [139], "min" : [0]}, {"bufferView" : 12, "byteOffset" : 0, "componentType" : 5126, "count" : 140, "type" : "VEC3", "max" : [125.9638900756836, 35.01225662231445, -142.5659637451172], "min" : [122.68592071533203, 31.526161193847656, -142.5659637451172], "name" : "POSITION"}, {"bufferView" : 12, "byteOffset" : 12, "componentType" : 5126, "count" : 140, "type" : "VEC2", "max" : [0.9402980208396912, 1], "min" : [0, 0], "name" : "TEXCOORD_0"}, {"bufferView" : 0, "byteOffset" : 11064, "componentType" : 5123, "count" : 24, "type" : "SCALAR", "max" : [9], "min" : [0]}, {"bufferView" : 13, "byteOffset" : 0, "componentType" : 5126, "count" : 10, "type" : "VEC3", "max" : [128.78248596191406, 12.737417221069336, -140.59844970703125], "min" : [128.62232971191406, 11.256948471069336, -141.09844970703125], "name" : "POSITION"}, {"bufferView" : 13, "byteOffset" : 12, "componentType" : 5126, "count" : 10, "type" : "VEC2", "max" : [1, 1], "min" : [0, 0], "name" : "TEXCOORD_0"}, {"bufferView" : 0, "byteOffset" : 11112, "componentType" : 5123, "count" : 6, "type" : "SCALAR", "max" : [3], "min" : [0]}, {"bufferView" : 14, "byteOffset" : 0, "componentType" : 5126, "count" : 4, "type" : "VEC3", "max" : [128.78248596191406, 12.737417221069336, -140.59844970703125], "min" : [128.62232971191406, 11.256948471069336, -140.59844970703125], "name" : "POSITION"}, {"bufferView" : 14, "byteOffset" : 12, "componentType" : 5126, "count" : 4, "type" : "VEC2", "max" : [0.1081790030002594, 1], "min" : [0, 0], "name" : "TEXCOORD_0"}, {"bufferView" : 0, "byteOffset" : 11124, "componentType" : 5123, "count" : 6, "type" : "SCALAR", "max" : [3], "min" : [0]}, {"bufferView" : 15, "byteOffset" : 0, "componentType" : 5126, "count" : 4, "type" : "VEC3", "max" : [128.78248596191406, 12.737417221069336, -141.09844970703125], "min" : [128.62232971191406, 11.256948471069336, -141.09844970703125], "name" : "POSITION"}, {"bufferView" : 15, "byteOffset" : 12, "componentType" : 5126, "count" : 4, "type" : "VEC2", "max" : [0.1081790030002594, 1], "min" : [0, 0], "name" : "TEXCOORD_0"}, {"bufferView" : 0, "byteOffset" : 11136, "componentType" : 5123, "count" : 840, "type" : "SCALAR", "max" : [283], "min" : [0]}, {"bufferView" : 16, "byteOffset" : 0, "componentType" : 5126, "count" : 284, "type" : "VEC3", "max" : [130.02272033691406, 12.280385971069336, -140.59844970703125], "min" : [129.03834533691406, 11.233510971069336, -141.09844970703125], "name" : "POSITION"}, {"bufferView" : 16, "byteOffset" : 12, "componentType" : 5126, "count" : 284, "type" : "VEC2", "max" : [1, 1], "min" : [0, 0], "name" : "TEXCOORD_0"}, {"bufferView" : 0, "byteOffset" : 12816, "componentType" : 5123, "count" : 420, "type" : "SCALAR", "max" : [139], "min" : [0]}, {"bufferView" : 17, "byteOffset" : 0, "componentType" : 5126, "count" : 140, "type" : "VEC3", "max" : [130.02272033691406, 12.280385971069336, -140.59844970703125], "min" : [129.03834533691406, 11.233510971069336, -140.59844970703125], "name" : "POSITION"}, {"bufferView" : 17, "byteOffset" : 12, "componentType" : 5126, "count" : 140, "type" : "VEC2", "max" : [0.9402980208396912, 1], "min" : [0, 0], "name" : "TEXCOORD_0"}, {"bufferView" : 0, "byteOffset" : 13656, "componentType" : 5123, "count" : 420, "type" : "SCALAR", "max" : [139], "min" : [0]}, {"bufferView" : 18, "byteOffset" : 0, "componentType" : 5126, "count" : 140, "type" : "VEC3", "max" : [130.02272033691406, 12.280385971069336, -141.09844970703125], "min" : [129.03834533691406, 11.233510971069336, -141.09844970703125], "name" : "POSITION"}, {"bufferView" : 18, "byteOffset" : 12, "componentType" : 5126, "count" : 140, "type" : "VEC2", "max" : [0.9402980208396912, 1], "min" : [0, 0], "name" : "TEXCOORD_0"}, {"bufferView" : 0, "byteOffset" : 14496, "componentType" : 5123, "count" : 1068, "type" : "SCALAR", "max" : [359], "min" : [0]}, {"bufferView" : 19, "byteOffset" : 0, "componentType" : 5126, "count" : 360, "type" : "VEC3", "max" : [131.13209533691406, 12.280385971069336, -140.59844970703125], "min" : [130.21022033691406, 10.786245346069336, -141.09844970703125], "name" : "POSITION"}, {"bufferView" : 19, "byteOffset" : 12, "componentType" : 5126, "count" : 360, "type" : "VEC2", "max" : [1, 1], "min" : [0, 0], "name" : "TEXCOORD_0"}, {"bufferView" : 0, "byteOffset" : 16632, "componentType" : 5123, "count" : 534, "type" : "SCALAR", "max" : [177], "min" : [0]}, {"bufferView" : 20, "byteOffset" : 0, "componentType" : 5126, "count" : 178, "type" : "VEC3", "max" : [131.13209533691406, 12.280385971069336, -140.59844970703125], "min" : [130.21022033691406, 10.786245346069336, -140.59844970703125], "name" : "POSITION"}, {"bufferView" : 20, "byteOffset" : 12, "componentType" : 5126, "count" : 178, "type" : "VEC2", "max" : [0.6169930100440979, 1], "min" : [0, 0], "name" : "TEXCOORD_0"}, {"bufferView" : 0, "byteOffset" : 17700, "componentType" : 5123, "count" : 534, "type" : "SCALAR", "max" : [177], "min" : [0]}, {"bufferView" : 21, "byteOffset" : 0, "componentType" : 5126, "count" : 178, "type" : "VEC3", "max" : [131.13209533691406, 12.280385971069336, -141.09844970703125], "min" : [130.21022033691406, 10.786245346069336, -141.09844970703125], "name" : "POSITION"}, {"bufferView" : 21, "byteOffset" : 12, "componentType" : 5126, "count" : 178, "type" : "VEC2", "max" : [0.6169930100440979, 1], "min" : [0, 0], "name" : "TEXCOORD_0"}, {"bufferView" : 0, "byteOffset" : 18768, "componentType" : 5123, "count" : 840, "type" : "SCALAR", "max" : [283], "min" : [0]}, {"bufferView" : 22, "byteOffset" : 0, "componentType" : 5126, "count" : 284, "type" : "VEC3", "max" : [132.37232971191406, 12.280385971069336, -140.59844970703125], "min" : [131.38795471191406, 11.233510971069336, -141.09844970703125], "name" : "POSITION"}, {"bufferView" : 22, "byteOffset" : 12, "componentType" : 5126, "count" : 284, "type" : "VEC2", "max" : [1, 1], "min" : [0, 0], "name" : "TEXCOORD_0"}, {"bufferView" : 0, "byteOffset" : 20448, "componentType" : 5123, "count" : 420, "type" : "SCALAR", "max" : [139], "min" : [0]}, {"bufferView" : 23, "byteOffset" : 0, "componentType" : 5126, "count" : 140, "type" : "VEC3", "max" : [132.37232971191406, 12.280385971069336, -140.59844970703125], "min" : [131.38795471191406, 11.233510971069336, -140.59844970703125], "name" : "POSITION"}, {"bufferView" : 23, "byteOffset" : 12, "componentType" : 5126, "count" : 140, "type" : "VEC2", "max" : [0.9402980208396912, 1], "min" : [0, 0], "name" : "TEXCOORD_0"}, {"bufferView" : 0, "byteOffset" : 21288, "componentType" : 5123, "count" : 420, "type" : "SCALAR", "max" : [139], "min" : [0]}, {"bufferView" : 24, "byteOffset" : 0, "componentType" : 5126, "count" : 140, "type" : "VEC3", "max" : [132.37232971191406, 12.280385971069336, -141.09844970703125], "min" : [131.38795471191406, 11.233510971069336, -141.09844970703125], "name" : "POSITION"}, {"bufferView" : 24, "byteOffset" : 12, "componentType" : 5126, "count" : 140, "type" : "VEC2", "max" : [0.9402980208396912, 1], "min" : [0, 0], "name" : "TEXCOORD_0"}, {"bufferView" : 0, "byteOffset" : 22128, "componentType" : 5123, "count" : 1728, "type" : "SCALAR", "max" : [359], "min" : [0]}, {"bufferView" : 25, "byteOffset" : 0, "componentType" : 5126, "count" : 360, "type" : "VEC3", "max" : [140.30638122558594, 1.417320966720581, -129.94805908203125], "min" : [120.30638122558594, 1.417320966720581, -149.94805908203125], "name" : "POSITION"}, {"bufferView" : 25, "byteOffset" : 12, "componentType" : 5126, "count" : 360, "type" : "VEC2", "max" : [1, 1], "min" : [0, 0], "name" : "TEXCOORD_0"}, {"bufferView" : 0, "byteOffset" : 25584, "componentType" : 5123, "count" : 7782, "type" : "SCALAR", "max" : [1690], "min" : [0]}, {"bufferView" : 26, "byteOffset" : 0, "componentType" : 5126, "count" : 1691, "type" : "VEC3", "max" : [157.0100860595703, 25.575439453125, -140.7279510498047], "min" : [102.95713806152344, 12.55880355834961, -144.6624298095703], "name" : "POSITION"}, {"bufferView" : 26, "byteOffset" : 12, "componentType" : 5126, "count" : 1691, "type" : "VEC2", "max" : [1, 1], "min" : [0, 0], "name" : "TEXCOORD_0"}, {"bufferView" : 0, "byteOffset" : 41148, "componentType" : 5123, "count" : 129792, "type" : "SCALAR", "max" : [22463], "min" : [0]}, {"bufferView" : 27, "byteOffset" : 0, "componentType" : 5126, "count" : 22464, "type" : "VEC3", "max" : [161.0534210205078, 47.80706024169922, -140.68191528320312], "min" : [99.05291748046875, 10.807059288024902, -143.18316650390625], "name" : "POSITION"}, {"bufferView" : 27, "byteOffset" : 12, "componentType" : 5126, "count" : 22464, "type" : "VEC2", "max" : [1, 1], "min" : [0, 0], "name" : "TEXCOORD_0"}, {"bufferView" : 0, "byteOffset" : 300732, "componentType" : 5123, "count" : 5820, "type" : "SCALAR", "max" : [1157], "min" : [0]}, {"bufferView" : 28, "byteOffset" : 0, "componentType" : 5126, "count" : 1158, "type" : "VEC3", "max" : [132.19869995117188, 13.804713249206543, -142.56153869628906], "min" : [128.19654846191406, 1.3918960094451904, -150.3815155029297], "name" : "POSITION"}, {"bufferView" : 28, "byteOffset" : 12, "componentType" : 5126, "count" : 1158, "type" : "VEC2", "max" : [1, 1], "min" : [0, 0], "name" : "TEXCOORD_0"}, {"bufferView" : 0, "byteOffset" : 312372, "componentType" : 5123, "count" : 3240, "type" : "SCALAR", "max" : [647], "min" : [0]}, {"bufferView" : 29, "byteOffset" : 0, "componentType" : 5126, "count" : 648, "type" : "VEC3", "max" : [140.28346252441406, 3.7355151176452637, -129.72540283203125], "min" : [120.28337097167969, 1.3633710145950317, -150.04185485839844], "name" : "POSITION"}, {"bufferView" : 29, "byteOffset" : 12, "componentType" : 5126, "count" : 648, "type" : "VEC2", "max" : [1, 1], "min" : [0, 0], "name" : "TEXCOORD_0"}], "asset" : {"generator" : "Aspose.3D 24.4.1", "version" : "2.0"}, "buffers" : [{"uri" : "data:application/octet-stream;base64,", "byteLength" : 919872}], "bufferViews" : [{"buffer" : 0, "byteOffset" : 0, "byteLength" : 318852, "target" : 34963}, {"buffer" : 0, "byteOffset" : 318856, "byteLength" : 200, "byteStride" : 20, "target" : 34962}, {"buffer" : 0, "byteOffset" : 319060, "byteLength" : 80, "byteStride" : 20, "target" : 34962}, {"buffer" : 0, "byteOffset" : 319144, "byteLength" : 80, "byteStride" : 20, "target" : 34962}, {"buffer" : 0, "byteOffset" : 319228, "byteLength" : 5680, "byteStride" : 20, "target" : 34962}, {"buffer" : 0, "byteOffset" : 324912, "byteLength" : 2800, "byteStride" : 20, "target" : 34962}, {"buffer" : 0, "byteOffset" : 327716, "byteLength" : 2800, "byteStride" : 20, "target" : 34962}, {"buffer" : 0, "byteOffset" : 330520, "byteLength" : 7200, "byteStride" : 20, "target" : 34962}, {"buffer" : 0, "byteOffset" : 337724, "byteLength" : 3560, "byteStride" : 20, "target" : 34962}, {"buffer" : 0, "byteOffset" : 341288, "byteLength" : 3560, "byteStride" : 20, "target" : 34962}, {"buffer" : 0, "byteOffset" : 344852, "byteLength" : 5680, "byteStride" : 20, "target" : 34962}, {"buffer" : 0, "byteOffset" : 350536, "byteLength" : 2800, "byteStride" : 20, "target" : 34962}, {"buffer" : 0, "byteOffset" : 353340, "byteLength" : 2800, "byteStride" : 20, "target" : 34962}, {"buffer" : 0, "byteOffset" : 356144, "byteLength" : 200, "byteStride" : 20, "target" : 34962}, {"buffer" : 0, "byteOffset" : 356348, "byteLength" : 80, "byteStride" : 20, "target" : 34962}, {"buffer" : 0, "byteOffset" : 356432, "byteLength" : 80, "byteStride" : 20, "target" : 34962}, {"buffer" : 0, "byteOffset" : 356516, "byteLength" : 5680, "byteStride" : 20, "target" : 34962}, {"buffer" : 0, "byteOffset" : 362200, "byteLength" : 2800, "byteStride" : 20, "target" : 34962}, {"buffer" : 0, "byteOffset" : 365004, "byteLength" : 2800, "byteStride" : 20, "target" : 34962}, {"buffer" : 0, "byteOffset" : 367808, "byteLength" : 7200, "byteStride" : 20, "target" : 34962}, {"buffer" : 0, "byteOffset" : 375012, "byteLength" : 3560, "byteStride" : 20, "target" : 34962}, {"buffer" : 0, "byteOffset" : 378576, "byteLength" : 3560, "byteStride" : 20, "target" : 34962}, {"buffer" : 0, "byteOffset" : 382140, "byteLength" : 5680, "byteStride" : 20, "target" : 34962}, {"buffer" : 0, "byteOffset" : 387824, "byteLength" : 2800, "byteStride" : 20, "target" : 34962}, {"buffer" : 0, "byteOffset" : 390628, "byteLength" : 2800, "byteStride" : 20, "target" : 34962}, {"buffer" : 0, "byteOffset" : 393432, "byteLength" : 7200, "byteStride" : 20, "target" : 34962}, {"buffer" : 0, "byteOffset" : 400636, "byteLength" : 33820, "byteStride" : 20, "target" : 34962}, {"buffer" : 0, "byteOffset" : 434460, "byteLength" : 449280, "byteStride" : 20, "target" : 34962}, {"buffer" : 0, "byteOffset" : 883744, "byteLength" : 23160, "byteStride" : 20, "target" : 34962}, {"buffer" : 0, "byteOffset" : 906908, "byteLength" : 12960, "byteStride" : 20, "target" : 34962}], "meshes" : [{"primitives" : [{"attributes" : {"POSITION" : 1, "TEXCOORD_0" : 2}, "indices" : 0, "mode" : 4}], "name" : ""}, {"primitives" : [{"attributes" : {"POSITION" : 4, "TEXCOORD_0" : 5}, "indices" : 3, "mode" : 4}], "name" : ""}, {"primitives" : [{"attributes" : {"POSITION" : 7, "TEXCOORD_0" : 8}, "indices" : 6, "mode" : 4}], "name" : ""}, {"primitives" : [{"attributes" : {"POSITION" : 10, "TEXCOORD_0" : 11}, "indices" : 9, "mode" : 4}], "name" : ""}, {"primitives" : [{"attributes" : {"POSITION" : 13, "TEXCOORD_0" : 14}, "indices" : 12, "mode" : 4}], "name" : ""}, {"primitives" : [{"attributes" : {"POSITION" : 16, "TEXCOORD_0" : 17}, "indices" : 15, "mode" : 4}], "name" : ""}, {"primitives" : [{"attributes" : {"POSITION" : 19, "TEXCOORD_0" : 20}, "indices" : 18, "mode" : 4}], "name" : ""}, {"primitives" : [{"attributes" : {"POSITION" : 22, "TEXCOORD_0" : 23}, "indices" : 21, "mode" : 4}], "name" : ""}, {"primitives" : [{"attributes" : {"POSITION" : 25, "TEXCOORD_0" : 26}, "indices" : 24, "mode" : 4}], "name" : ""}, {"primitives" : [{"attributes" : {"POSITION" : 28, "TEXCOORD_0" : 29}, "indices" : 27, "mode" : 4}], "name" : ""}, {"primitives" : [{"attributes" : {"POSITION" : 31, "TEXCOORD_0" : 32}, "indices" : 30, "mode" : 4}], "name" : ""}, {"primitives" : [{"attributes" : {"POSITION" : 34, "TEXCOORD_0" : 35}, "indices" : 33, "mode" : 4}], "name" : ""}, {"primitives" : [{"attributes" : {"POSITION" : 37, "TEXCOORD_0" : 38}, "indices" : 36, "mode" : 4}], "name" : ""}, {"primitives" : [{"attributes" : {"POSITION" : 40, "TEXCOORD_0" : 41}, "indices" : 39, "mode" : 4}], "name" : ""}, {"primitives" : [{"attributes" : {"POSITION" : 43, "TEXCOORD_0" : 44}, "indices" : 42, "mode" : 4}], "name" : ""}, {"primitives" : [{"attributes" : {"POSITION" : 46, "TEXCOORD_0" : 47}, "indices" : 45, "mode" : 4}], "name" : ""}, {"primitives" : [{"attributes" : {"POSITION" : 49, "TEXCOORD_0" : 50}, "indices" : 48, "mode" : 4}], "name" : ""}, {"primitives" : [{"attributes" : {"POSITION" : 52, "TEXCOORD_0" : 53}, "indices" : 51, "mode" : 4}], "name" : ""}, {"primitives" : [{"attributes" : {"POSITION" : 55, "TEXCOORD_0" : 56}, "indices" : 54, "mode" : 4}], "name" : ""}, {"primitives" : [{"attributes" : {"POSITION" : 58, "TEXCOORD_0" : 59}, "indices" : 57, "mode" : 4}], "name" : ""}, {"primitives" : [{"attributes" : {"POSITION" : 61, "TEXCOORD_0" : 62}, "indices" : 60, "mode" : 4}], "name" : ""}, {"primitives" : [{"attributes" : {"POSITION" : 64, "TEXCOORD_0" : 65}, "indices" : 63, "mode" : 4}], "name" : ""}, {"primitives" : [{"attributes" : {"POSITION" : 67, "TEXCOORD_0" : 68}, "indices" : 66, "mode" : 4}], "name" : ""}, {"primitives" : [{"attributes" : {"POSITION" : 70, "TEXCOORD_0" : 71}, "indices" : 69, "mode" : 4}], "name" : ""}, {"primitives" : [{"attributes" : {"POSITION" : 73, "TEXCOORD_0" : 74}, "indices" : 72, "mode" : 4}], "name" : ""}, {"primitives" : [{"attributes" : {"POSITION" : 76, "TEXCOORD_0" : 77}, "indices" : 75, "mode" : 4}], "name" : ""}, {"primitives" : [{"attributes" : {"POSITION" : 79, "TEXCOORD_0" : 80}, "indices" : 78, "mode" : 4}], "name" : ""}, {"primitives" : [{"attributes" : {"POSITION" : 82, "TEXCOORD_0" : 83}, "indices" : 81, "mode" : 4}], "name" : ""}, {"primitives" : [{"attributes" : {"POSITION" : 85, "TEXCOORD_0" : 86}, "indices" : 84, "mode" : 4}], "name" : ""}], "nodes" : [{"mesh" : 0, "name" : "monitor logoback Text _ logo1 l"}, {"mesh" : 1, "name" : "monitor logoback Text _ logo1 l Uz_v_r_14"}, {"mesh" : 2, "name" : "monitor logoback Text _ logo1 l Uz_v_r_23"}, {"mesh" : 3, "name" : "monitor logoback Text _ logo1 o2"}, {"mesh" : 4, "name" : "monitor logoback Text _ logo1 o2 Uz_v_r_12"}, {"mesh" : 5, "name" : "monitor logoback Text _ logo1 o2 Uz_v_r_21"}, {"mesh" : 6, "name" : "monitor logoback Text _ logo1 g1"}, {"mesh" : 7, "name" : "monitor logoback Text _ logo1 g1 Uz_v_r_1"}, {"mesh" : 8, "name" : "monitor logoback Text _ logo1 g1 Uz_v_r_2"}, {"mesh" : 9, "name" : "monitor logoback Text _ logo1 o3"}, {"mesh" : 10, "name" : "monitor logoback Text _ logo1 o3 Uz_v_r_11"}, {"mesh" : 11, "name" : "monitor logoback Text _ logo1 o3 Uz_v_r_22"}, {"mesh" : 12, "name" : "monitor logofront _1 logo l1"}, {"mesh" : 13, "name" : "monitor logofront _1 logo l1 Uz_v_r_13"}, {"mesh" : 14, "name" : "monitor logofront _1 logo l1 Uz_v_r_24"}, {"mesh" : 15, "name" : "monitor logofront _1 logo o1"}, {"mesh" : 16, "name" : "monitor logofront _1 logo o1 Uz_v_r_15"}, {"mesh" : 17, "name" : "monitor logofront _1 logo o1 Uz_v_r_25"}, {"mesh" : 18, "name" : "monitor logofront _1 logo g"}, {"mesh" : 19, "name" : "monitor logofront _1 logo g Uz_v_r_16"}, {"mesh" : 20, "name" : "monitor logofront _1 logo g Uz_v_r_26"}, {"mesh" : 21, "name" : "monitor logofront _1 logo o"}, {"mesh" : 22, "name" : "monitor logofront _1 logo o Uz_v_r_17"}, {"mesh" : 23, "name" : "monitor logofront _1 logo o Uz_v_r_27"}, {"mesh" : 24, "name" : "monitor circle"}, {"mesh" : 25, "name" : "monitor curve"}, {"mesh" : 26, "name" : "monitor main"}, {"mesh" : 27, "name" : "monitor stick"}, {"mesh" : 28, "name" : "monitor base"}], "scene" : 0, "scenes" : [{"nodes" : [0, 1, 2, 3, 4, 5, 6, 7, 8, 9, 10, 11, 12, 13, 14, 15, 16, 17, 18, 19, 20, 21, 22, 23, 24, 25, 26, 27, 28]}]}